<svg width="495" height="101" viewBox="0 0 495 101" fill="none" xmlns="http://www.w3.org/2000/svg">
<path d="M212.9 79.88H186.5V18.5H160.1V101H212.9V79.88ZM268.989 50.73H246.549V39.62H270.969L274.269 18.5H220.149V101H246.549V70.42H268.989V50.73ZM331.079 50.73H308.639V39.62H333.059L336.359 18.5H282.239V101H308.639V70.42H331.079V50.73ZM391.739 101H344.329V18.5H387.119C395.039 18.5 400.685 20.04 404.059 23.12C407.432 26.2 409.119 30.6733 409.119 36.54C409.119 42.48 408.055 47.0633 405.929 50.29C403.802 53.4433 400.905 55.5333 397.239 56.56V57.33C407.872 59.1633 413.189 66.4233 413.189 79.11C413.189 85.71 411.429 91.0267 407.909 95.06C404.462 99.02 399.072 101 391.739 101ZM381.069 68.11H370.729V81.64H380.849C384.589 81.64 386.459 79.3667 386.459 74.82C386.459 70.3467 384.662 68.11 381.069 68.11ZM379.089 36.54H370.729V48.86H378.869C382.242 48.86 383.929 46.8067 383.929 42.7C383.929 38.5933 382.315 36.54 379.089 36.54Z" fill="white"/>
</svg>
